<svg width="60.272" height="60.272" xmlns="http://www.w3.org/2000/svg">
 <g>
  <title>Layer 1</title>
  <g id="svg_1">
   <polygon points="31.577,1.863 44.039,10.002 44.039,58.579 31.577,58.579  " id="svg_2"/>
   <path d="m45.014999,36.875v21.449001h15.257999v-16.575001l-15.257999,-4.874001zm6.442001,16.785999l-4.662003,-1.356998v-4.024002l4.662003,1.692001v3.688999l0,0zm0,-7.036999l-4.662003,-1.358002v-4.021999l4.662003,1.694v3.686001l0,0zm5.848999,8.73l-4.664001,-1.355v-4.026001l4.664001,1.695v3.686001l0,0zm0,-7.035999l-4.662998,-1.355999v-4.024002l4.664997,1.692001v3.688h-0.001999l0,0z" id="svg_3"/>
   <path d="m14.75,11.527v32.208l-2.203,1.438999v-10.757l-1.398,0.577999v-10.73l-10.175,4.492001v10.452999l-0.974,0.403999v18.965h30.153999v-56.884999l-15.403999,9.833zm-12.843,19.277l3.434,-1.589001v4.132l-3.434,1.526001v-4.069l0,0zm0.255,6.696999l3.433,-1.591v4.134998l-3.433,1.524002v-4.068001l0,0zm3.537,14.844002l-3.433,1.528v-4.071003l3.433,-1.588997v4.132l0,0zm0,-6.296001l-3.433,1.528999v-4.070999l3.433,-1.588001v4.130001l0,0zm0.489,-17.237l3.434,-1.589001v4.133001l-3.434,1.525v-4.069l0,0zm0.255,6.695999l3.433001,-1.589001v4.132999l-3.433001,1.527v-4.070999l0,0zm3.835,14.868l-3.434,1.527v-4.069l3.434,-1.591v4.132999l0,0zm0,-6.294998l-3.434,1.524998v-4.066998l3.434,-1.59v4.132l0,0zm10.999001,0.716l-4.749001,2.973v-4.408001l4.749001,-3.071999v4.507l0,0zm0,-7.448002l-4.749001,2.971001v-4.41l4.749001,-3.071999v4.510998l0,0zm0,-7.449999l-4.749001,2.974001v-4.411001l4.749001,-3.073999v4.511l0,0zm0,-7.448999l-4.749001,2.969999v-4.408001l4.749001,-3.073999v4.512001l0,0zm0,-7.451001l-4.749001,2.972001v-4.409l4.749001,-3.073v4.509999l0,0zm7.035999,25.396001l-5.51,3.447998v-4.542999l5.51,-3.565998v4.660999l0,0zm0,-7.450001l-5.51,3.449001v-4.544001l5.51,-3.568001v4.663l0,0zm0,-7.449999l-5.51,3.448999v-4.542l5.51,-3.569v4.662001l0,0zm0,-7.450001l-5.51,3.448999v-4.542999l5.51,-3.568v4.662l0,0zm0,-7.451l-5.51,3.449v-4.543l5.51,-3.568v4.662l0,0z" id="svg_4"/>
  </g>
  <g id="svg_5"/>
  <g id="svg_6"/>
  <g id="svg_7"/>
  <g id="svg_8"/>
  <g id="svg_9"/>
  <g id="svg_10"/>
  <g id="svg_11"/>
  <g id="svg_12"/>
  <g id="svg_13"/>
  <g id="svg_14"/>
  <g id="svg_15"/>
  <g id="svg_16"/>
  <g id="svg_17"/>
  <g id="svg_18"/>
  <g id="svg_19"/>
  <line fill="none" stroke="#ff0000" stroke-width="5" stroke-linejoin="null" stroke-linecap="null" x1="28.63599" y1="-12.86401" x2="28.63599" y2="72.18891" id="svg_22" transform="rotate(45 28.635986328125,29.66244888305664) "/>
  <line fill="none" stroke="#ff0000" stroke-width="5" stroke-linejoin="null" stroke-linecap="null" x1="28.63599" y1="-12.39048" x2="28.63599" y2="72.66245" id="svg_23" transform="rotate(135 28.635986328125,30.135986328125) "/>
 </g>
</svg>